<?xml version="1.0" encoding="utf-8"?>
<!-- Generator: Adobe Illustrator 15.0.0, SVG Export Plug-In . SVG Version: 6.00 Build 0)  -->
<!DOCTYPE svg PUBLIC "-//W3C//DTD SVG 1.1//EN" "http://www.w3.org/Graphics/SVG/1.1/DTD/svg11.dtd">
<svg version="1.1" id="Layer_1" xmlns="http://www.w3.org/2000/svg" xmlns:xlink="http://www.w3.org/1999/xlink" x="0px" y="0px"
	 width="1400px" height="650px" viewBox="0 0 1400 650" enable-background="new 0 0 1400 650" xml:space="preserve">
<g>
	<g>
		<path fill-rule="evenodd" clip-rule="evenodd" fill="#FFFFFF" d="M596.6,92c-6.616,38.424-13.167,76.913-19.92,115.2
			c-26.519-3.727-45.083,9.224-54.72,25.92c-9.365,16.224-14.322,50.425,2.88,62.4c3.034,2.112,9.347,5.358,14.4,4.56
			c2.092-0.331,5.003-5.498,6.96-7.92c16.077-19.9,32.36-39.567,46.32-61.2c66.494-0.439,133.972-0.24,201.84-0.24
			c4.206,0,10.534-0.869,13.2,0.24c1.712,0.712,4.944,7.271,6.24,9.12c12.747,18.186,26.018,34.437,40.08,52.08
			c1.812,2.275,5.332,7.487,7.2,7.92c2.694,0.625,7.625-1.046,9.84-1.92c8.32-3.285,13.148-10.762,15.12-19.92
			c2.958-13.741-0.556-29.718-4.801-39.6c-4.53-10.547-12.391-18.907-22.079-24.72c-9.731-5.838-22.315-10.005-37.44-6.24
			c-6.456-36.744-12.926-73.474-19.2-110.4c-2.954,1.637-4.939,4.43-7.44,6.72c-17.57,16.086-35.151,33.384-53.04,49.44
			c-13.262-19.047-27.183-38.048-41.04-57.36c-0.885-1.234-2.292-3.826-2.64-3.84c-0.767-0.032-4.805,6.528-5.28,7.2
			c-11.758,16.636-23.753,33.956-35.28,50.64c-20.621-19.06-40.718-38.643-60.96-58.08c100.158,0,200.324,0,300.48,0
			c0,155.518,0,311.041,0,466.561c-62.96,0-125.919,0-188.88,0c35.353-1.917,63.994-11.938,88.32-25.92
			c23.806-13.682,44.289-31.8,60.24-53.28c23.335-31.423,41.604-74.64,37.92-131.52c-1.111-17.154-4.935-32.689-9.36-47.28
			c-0.889-0.273-2.688,1.275-4.08,2.16c-1.464,0.931-2.941,1.951-4.319,2.64c10.282,27.535,11.038,66.795,4.56,96.96
			c-6.464,30.101-19.314,54.983-35.04,75.12c-15.984,20.469-36.074,37.375-60,50.16c-24.041,12.847-53.296,21.841-88.32,21.84
			c-35.169,0-64.167-9.369-87.84-22.319c-23.903-13.076-43.534-29.975-59.52-50.641c-15.567-20.124-28.45-45.383-34.8-75.359
			c-6.489-30.632-4.809-68.998,5.28-96.48c-2.732-1.756-5.816-4.413-8.16-5.76c-5.461,16.779-9.32,35.161-10.32,56.4
			c0-87.761,0-175.519,0-263.28C534.201,92,565.399,92,596.6,92z M744.44,263.84c-5.853,1.605-10.706,3.65-14.4,6.24
			c-10.401,7.292-15.239,25.334-7.199,39.84c6.678,12.048,20.656,20.478,28.56,33.84c6.934,11.722,12.803,34.305,24.96,38.64
			c19.408,6.921,36.683-6.243,44.641-16.08c9.347-11.555,17.074-28.692,13.92-48.96c-2.868-18.425-12.812-31.56-23.761-40.56
			c-11.17-9.184-27.051-16.987-48.479-15.84C756.315,261.301,750.341,262.222,744.44,263.84z M587.96,279.44
			c-11.009,9.76-20.007,23.215-22.08,41.28c-1.222,10.65,0.738,19.65,3.6,27.359c5.767,15.534,14.667,27.261,29.76,33.601
			c7.654,3.215,18.321,5.106,26.64,1.2c8.476-3.98,13.268-16.296,17.28-24.96c2.872-6.201,5.75-12.029,9.36-17.28
			c7.685-11.177,18.672-18.334,24.96-28.32c5.591-8.88,6.307-23.093,1.44-32.88c-6.23-12.528-27.203-18.185-45.12-17.76
			C613.196,262.168,598.95,269.697,587.96,279.44z M861.32,307.76c9.517,25.283,11.369,60.163,5.521,88.56
			c-5.777,28.05-17.304,51.129-31.681,69.841c-14.583,18.98-32.69,35.08-54.72,46.8c-22.111,11.764-48.288,20.641-80.88,20.64
			c-32.341,0-58.968-8.369-81.12-20.399c-22.122-12.014-40.245-27.537-54.96-46.561c-14.378-18.588-25.999-41.778-31.92-69.6
			c-6.046-28.409-3.947-63.527,5.28-89.041c-3.639,0.119-6.213-0.827-9.36-1.2c-4.316,13.751-7.398,28.318-8.4,44.64
			c-3.237,52.741,15.384,92.967,37.44,121.44c15.15,19.558,34.589,36.48,57.36,48.72c23.146,12.441,51.081,20.902,84.96,21.36
			c33.373,0.451,62.21-8.999,84.96-21.12c23.508-12.525,41.995-28.737,57.6-48.72c15.163-19.418,27.66-43.223,34.08-72.24
			c6.487-29.321,5.072-66.865-4.56-93.601c-2.908-0.027-7.259,1.801-9.601,0c0.001-0.133-0.194-0.272-0.239,0
			C861.268,307.333,861.359,307.481,861.32,307.76z M695.72,389.841c-8.996,0.143-16.432,1.893-24.24,5.52
			c-2.79,1.296-5.865,3.089-9.12,5.28c-2.362,1.591-7.609,4.784-7.92,6.72c-0.545,3.393,3.764,7.604,5.76,9.601
			c8.029,8.028,17.682,13.24,27.36,18.72c0,8.32,0,16.64,0,24.96c-6.878,8.883-14.283,17.237-21.12,26.16
			c5.406,3.634,10.638,7.441,16.08,11.04c4-6.72,8.114-13.326,12.48-19.68c5.657,7.703,11.435,15.284,17.28,22.8
			c4.896-2.943,9.891-5.79,14.88-8.641c-7.155-11.084-14.809-21.671-22.08-32.64c0.944-7.936,1.622-16.138,2.4-24.24
			c14.555-6.725,28.472-14.088,36.24-27.6C731.436,399.223,717.24,389.498,695.72,389.841z"/>
		<path fill-rule="evenodd" clip-rule="evenodd" d="M596.6,92c0.08,0,0.16,0,0.24,0c20.242,19.438,40.339,39.021,60.96,58.08
			c11.527-16.685,23.522-34.004,35.28-50.64c0.475-0.672,4.513-7.232,5.28-7.2c0.348,0.014,1.755,2.605,2.64,3.84
			c13.857,19.312,27.778,38.313,41.04,57.36c17.889-16.056,35.47-33.354,53.04-49.44c2.501-2.29,4.486-5.083,7.44-6.72
			c6.274,36.926,12.744,73.656,19.2,110.4c15.125-3.765,27.709,0.402,37.44,6.24c9.688,5.813,17.549,14.172,22.079,24.72
			c4.245,9.882,7.759,25.859,4.801,39.6c-1.972,9.158-6.8,16.635-15.12,19.92c-2.215,0.875-7.146,2.545-9.84,1.92
			c-1.868-0.433-5.388-5.646-7.2-7.92c-14.062-17.644-27.333-33.895-40.08-52.08c-1.296-1.849-4.528-8.408-6.24-9.12
			c-2.666-1.109-8.994-0.24-13.2-0.24c-67.868,0-135.346-0.199-201.84,0.24c-13.96,21.633-30.243,41.299-46.32,61.2
			c-1.957,2.422-4.868,7.59-6.96,7.92c-5.054,0.798-11.366-2.448-14.4-4.56c-17.202-11.976-12.245-46.176-2.88-62.4
			c9.638-16.696,28.202-29.646,54.72-25.92C583.433,168.913,589.984,130.424,596.6,92z M698.36,100.4
			c-13.577,18.744-26.574,38.066-40.08,56.88c-17.917-17.451-37.371-34.972-54.96-52.56c-1.136-1.136-2.524-2.878-3.6-2.64
			c-7.21,41.269-14.396,82.564-21.36,124.08c80.563,0,161.118,0,241.681,0c-6.729-39.991-13.934-79.507-20.641-119.52
			c-17.095,14.613-33.79,32.217-50.64,47.52c-2.382,2.163-4.76,4.503-7.44,6.24C727.059,140.342,712.725,120.356,698.36,100.4z"/>
		<path fill-rule="evenodd" clip-rule="evenodd" fill="#FFFFFF" d="M741.32,160.4c2.681-1.737,5.059-4.077,7.44-6.24
			c16.85-15.303,33.545-32.907,50.64-47.52c6.707,40.013,13.912,79.529,20.641,119.52c-80.562,0-161.118,0-241.681,0
			c6.963-41.516,14.149-82.812,21.36-124.08c1.076-0.238,2.464,1.504,3.6,2.64c17.589,17.588,37.043,35.109,54.96,52.56
			c13.506-18.814,26.503-38.136,40.08-56.88C712.725,120.356,727.059,140.342,741.32,160.4z M698.36,133.04
			c-12.287,17.873-24.819,35.501-37.2,53.28c-16.425-15.334-32.173-31.347-48.96-46.32c-3.639,22.602-7.611,44.869-11.52,67.2
			c65.6,0,131.201,0,196.8,0c-3.41-21.07-7.197-41.763-10.8-62.64c-15.867,14.052-31.736,30.184-48,44.64
			C725.263,170.458,711.96,151.601,698.36,133.04z"/>
		<path fill-rule="evenodd" clip-rule="evenodd" d="M738.681,189.2c16.264-14.456,32.133-30.588,48-44.64
			c3.603,20.877,7.39,41.57,10.8,62.64c-65.6,0-131.2,0-196.8,0c3.909-22.331,7.881-44.599,11.52-67.2
			c16.787,14.973,32.535,30.986,48.96,46.32c12.381-17.779,24.913-35.407,37.2-53.28C711.96,151.601,725.263,170.458,738.681,189.2z
			"/>
		<path fill-rule="evenodd" clip-rule="evenodd" d="M762.681,260.96c21.429-1.147,37.31,6.656,48.479,15.84
			c10.948,9,20.893,22.135,23.761,40.56c3.154,20.268-4.573,37.405-13.92,48.96c-7.958,9.837-25.232,23.001-44.641,16.08
			c-12.157-4.335-18.026-26.918-24.96-38.64c-7.903-13.362-21.882-21.792-28.56-33.84c-8.04-14.505-3.202-32.548,7.199-39.84
			c3.694-2.59,8.548-4.635,14.4-6.24C750.341,262.222,756.315,261.301,762.681,260.96z"/>
		<path fill-rule="evenodd" clip-rule="evenodd" d="M633.8,261.68c17.917-0.424,38.89,5.232,45.12,17.76
			c4.867,9.787,4.151,24-1.44,32.88c-6.288,9.986-17.275,17.144-24.96,28.32c-3.61,5.251-6.489,11.079-9.36,17.28
			c-4.012,8.664-8.804,20.979-17.28,24.96c-8.319,3.906-18.986,2.015-26.64-1.2c-15.093-6.34-23.994-18.066-29.76-33.601
			c-2.862-7.709-4.822-16.709-3.6-27.359c2.073-18.065,11.071-31.521,22.08-41.28C598.95,269.697,613.196,262.168,633.8,261.68z"/>
		<path fill-rule="evenodd" clip-rule="evenodd" d="M708.44,558.561c-6.16,0-12.32,0-18.48,0c-58.138-3.673-99.002-27-130.081-58.08
			c-31.023-31.024-53.607-72.601-56.88-131.04c0-4.72,0-9.439,0-14.16c1-21.239,4.859-39.621,10.32-56.4
			c2.344,1.348,5.428,4.004,8.16,5.76c-10.089,27.482-11.769,65.849-5.28,96.48c6.35,29.977,19.232,55.235,34.8,75.359
			c15.986,20.666,35.617,37.564,59.52,50.641c23.673,12.95,52.671,22.319,87.84,22.319c35.024,0.001,64.279-8.993,88.32-21.84
			c23.926-12.785,44.016-29.691,60-50.16c15.726-20.137,28.576-45.02,35.04-75.12c6.479-30.165,5.723-69.425-4.56-96.96
			c1.378-0.689,2.855-1.709,4.319-2.64c1.393-0.885,3.191-2.433,4.08-2.16c4.426,14.591,8.249,30.126,9.36,47.28
			c3.684,56.88-14.585,100.097-37.92,131.52c-15.951,21.48-36.435,39.599-60.24,53.28
			C772.435,546.622,743.793,556.644,708.44,558.561z"/>
		<path fill-rule="evenodd" clip-rule="evenodd" fill="#FFFFFF" d="M503,369.44c3.272,58.439,25.856,100.016,56.88,131.04
			c31.079,31.08,71.943,54.407,130.081,58.08c-62.321,0-124.639,0-186.96,0C503,495.521,503,432.482,503,369.44z"/>
		<path fill-rule="evenodd" clip-rule="evenodd" d="M743.721,407.841c-7.769,13.512-21.686,20.875-36.24,27.6
			c-0.778,8.103-1.456,16.305-2.4,24.24c7.271,10.969,14.925,21.556,22.08,32.64c-4.989,2.851-9.983,5.697-14.88,8.641
			c-5.845-7.516-11.623-15.097-17.28-22.8c-4.366,6.354-8.48,12.96-12.48,19.68c-5.442-3.599-10.674-7.406-16.08-11.04
			c6.837-8.923,14.242-17.277,21.12-26.16c0-8.32,0-16.64,0-24.96c-9.678-5.479-19.332-10.691-27.36-18.72
			c-1.996-1.996-6.305-6.208-5.76-9.601c0.311-1.936,5.558-5.129,7.92-6.72c3.255-2.191,6.331-3.984,9.12-5.28
			c7.808-3.627,15.244-5.377,24.24-5.52C717.24,389.498,731.436,399.223,743.721,407.841z"/>
		<path fill-rule="evenodd" clip-rule="evenodd" d="M861.081,307.28c0.045-0.272,0.24-0.133,0.239,0
			c2.342,1.801,6.692-0.027,9.601,0c9.632,26.735,11.047,64.279,4.56,93.601c-6.42,29.018-18.917,52.822-34.08,72.24
			c-15.604,19.982-34.092,36.194-57.6,48.72c-22.75,12.121-51.588,21.571-84.96,21.12c-33.879-0.458-61.813-8.919-84.96-21.36
			c-22.771-12.239-42.21-29.162-57.36-48.72c-22.056-28.474-40.677-68.699-37.44-121.44c1.001-16.322,4.083-30.889,8.4-44.64
			c3.146,0.374,5.721,1.319,9.36,1.2c-9.227,25.513-11.326,60.631-5.28,89.041c5.921,27.821,17.542,51.012,31.92,69.6
			c14.715,19.023,32.838,34.547,54.96,46.561c22.152,12.03,48.779,20.399,81.12,20.399c32.592,0.001,58.769-8.876,80.88-20.64
			c22.029-11.72,40.137-27.819,54.72-46.8c14.377-18.712,25.903-41.791,31.681-69.841c5.849-28.397,3.996-63.277-5.521-88.56
			C861.359,307.481,861.268,307.333,861.081,307.28z"/>
	</g>
</g>
</svg>
