<?xml version="1.0" encoding="utf-8"?>
<!-- Generator: Adobe Illustrator 15.0.0, SVG Export Plug-In . SVG Version: 6.00 Build 0)  -->
<!DOCTYPE svg PUBLIC "-//W3C//DTD SVG 1.1//EN" "http://www.w3.org/Graphics/SVG/1.1/DTD/svg11.dtd">
<svg version="1.1" id="Layer_1" xmlns="http://www.w3.org/2000/svg" xmlns:xlink="http://www.w3.org/1999/xlink" x="0px" y="0px"
	 width="685.107px" height="612px" viewBox="0 0 685.107 612" enable-background="new 0 0 685.107 612" xml:space="preserve">
<path d="M525.676,338.119c0,101.438-82.23,183.666-183.668,183.666c-101.438,0-183.67-82.229-183.67-183.666
	c0-101.438,82.231-183.673,183.67-183.673C443.446,154.446,525.676,236.681,525.676,338.119"/>
<path fill="#FDFDFE" d="M342.009,534.297c-52.398,0-101.664-20.408-138.722-57.461c-37.052-37.051-57.458-86.314-57.458-138.717
	c0-52.393,20.406-101.657,57.458-138.716c37.06-37.054,86.326-57.46,138.723-57.46c52.385,0,101.651,20.407,138.718,57.46
	c37.048,37.053,57.449,86.317,57.449,138.717c0,52.408-20.401,101.674-57.449,138.717
	C443.661,513.889,394.396,534.297,342.009,534.297 M342.009,151.173c-49.932,0-96.879,19.446-132.195,54.756
	c-35.309,35.316-54.754,82.261-54.754,132.19c0,49.936,19.446,96.883,54.754,132.189c35.314,35.311,82.262,54.758,132.195,54.758
	c49.922,0,96.87-19.447,132.192-54.758c35.303-35.301,54.744-82.246,54.744-132.189c0-49.935-19.441-96.88-54.746-132.19
	C438.876,170.619,391.93,151.173,342.009,151.173 M342.009,518.512c-99.47,0-180.396-80.922-180.396-180.393
	c0-99.469,80.926-180.393,180.396-180.393c99.466,0,180.389,80.924,180.389,180.393C522.398,437.59,441.475,518.512,342.009,518.512
	 M342.009,166.958c-94.381,0-171.166,76.782-171.166,171.162c0,94.379,76.785,171.16,171.166,171.16
	c94.377,0,171.158-76.781,171.158-171.16C513.167,243.74,436.386,166.958,342.009,166.958"/>
<path fill-rule="evenodd" clip-rule="evenodd" fill="#FFFFFF" d="M385.951,239.854c51.649-15.08,91.979,22.791,92.392,61.597
	c0.342,31.937-26.677,64.535-57.197,57.197c-13.782-3.318-17.694-24.869-28.603-41.795c-11.709-18.193-33.01-26.018-30.792-50.598
	C363.138,250.771,373.035,243.62,385.951,239.854"/>
<path fill-rule="evenodd" clip-rule="evenodd" fill="#FFFFFF" d="M300.835,240.645c-51.652-15.072-91.983,22.791-92.402,61.597
	c-0.343,31.936,26.678,64.534,57.197,57.196c13.783-3.311,17.693-24.869,28.602-41.797c11.708-18.19,33.017-26.024,30.791-50.594
	C323.636,251.561,313.739,244.408,300.835,240.645"/>
<path fill="#FFFFFF" d="M330.563,411.055c0,0-33.139-15.922-33.139-28.48c0,0,36.293-38.59,89.167,0.791
	c0,0-5.529,14.275-36.304,27.689l-2.365,24.453l22.1,32.352l-14.996,8.68l-17.362-22.883l-12.473,19.732l-15.936-11.047
	l21.308-26.043V411.055z"/>
<path d="M441.568,194.147c0,0-5.485-33.211,43.25-26.183c0,0,50.617,8.559,54.813,66.375c0,0,7.252,48.661-34.767,49.422
	C504.865,283.761,441.419,201.241,441.568,194.147"/>
<path fill="#FFFFFF" d="M450.419,205.011c0,0-5.418-26.762,33.34-22.5c0,0,40.296,5.447,45.494,52.192
	c0,0,7.318,39.233-25.877,41.089C503.376,275.792,450.532,210.767,450.419,205.011"/>
<path d="M244.536,194.147c0,0,5.485-33.211-43.25-26.183c0,0-50.618,8.559-54.814,66.375c0,0-7.252,48.661,34.767,49.422
	C181.239,283.761,244.684,201.241,244.536,194.147"/>
<polygon fill="#FFFFFF" points="222.237,198.183 240.295,93.431 298.785,149.336 340.92,89.127 386.502,152.78 443.986,98.595 
	461.317,198.183 "/>
<path fill="#FFFFFF" d="M235.685,205.011c0,0,5.417-26.762-33.34-22.5c0,0-40.296,5.447-45.495,52.192
	c0,0-7.318,39.233,25.877,41.089C182.727,275.792,235.572,210.767,235.685,205.011"/>
<path d="M465.753,204.161H218.279L241.011,72.31l59.753,57.113l40.337-57.634l43.67,60.977l58.894-55.51L465.753,204.161z
	 M246.381,180.488H437.61l-9.715-55.833l-46.596,43.912l-39.968-55.81l-36.989,52.835l-47.554-45.46L246.381,180.488z"/>
<path fill="#FFFFFF" d="M468.497,206.468H215.54l23.933-138.82l60.942,58.25l40.665-58.102l44.032,61.48l60.092-56.642
	L468.497,206.468z M221.018,201.853h241.991L442.127,81.876l-57.694,54.38l-43.31-60.475l-40.009,57.167L242.55,76.973
	L221.018,201.853z M440.353,182.796H243.642l11.608-67.326l48.745,46.597l37.315-53.303l40.329,56.312l47.797-45.042
	L440.353,182.796z M249.12,178.18h185.746l-8.508-48.904l-45.397,42.781l-39.607-55.306l-36.662,52.367l-46.365-44.323
	L249.12,178.18z"/>
</svg>
